<svg width="83" height="45" viewBox="0 0 83 45" fill="none" xmlns="http://www.w3.org/2000/svg">
<path opacity="0.81" d="M78.61 33.7421C73.94 30.9421 68.53 29.2721 63.08 28.9021C66.22 27.6121 69.46 26.8021 72.85 26.9121C73.19 26.9221 73.62 26.9321 74.05 26.7421C74.9 26.3521 75.32 25.3921 75.2 24.1021C74.75 19.4721 70.54 15.4921 65.4 14.8521C61.18 14.3021 56.42 15.9021 52.37 19.2021C52.29 19.2621 52.23 19.3321 52.15 19.3921C53.63 16.0921 55.64 12.8321 57.35 10.1821L57.63 9.75211C59.02 7.61211 60.59 5.19211 60.35 2.43211C60.33 2.18211 60.19 1.95211 59.97 1.81211C59.75 1.67211 59.49 1.65211 59.25 1.73211C54.23 3.58211 49.66 6.77211 46.06 10.8621C46.06 10.6821 46.05 10.4921 46.04 10.3121C45.95 8.33211 45.83 6.36211 45.67 4.39211C45.59 3.32211 45.48 2.37211 45.05 1.45211C44.68 0.652108 44.1 0.562108 43.84 0.562108C43.35 0.562108 43.03 0.872108 42.89 1.01211C41.71 2.14211 40.72 3.47211 39.95 4.91211C39.78 4.55211 39.61 4.18211 39.44 3.82211C39.32 3.56211 39.06 3.38211 38.78 3.36211C38.52 3.34211 38.22 3.46211 38.04 3.69211C36.78 5.40211 35.85 7.34211 35.26 9.40211C35.11 9.12211 34.96 8.84211 34.8 8.57211C33.2 5.78211 31.24 3.21211 29.35 0.732108C29.19 0.532108 28.9 0.142108 28.4 0.0321078C28 -0.0578922 27.58 0.0421078 27.27 0.322108C26.73 0.812108 26.62 1.68211 26.7 2.27211C27.34 7.51211 28.2 13.4121 30.02 19.0621C25.58 14.7921 20.31 11.4421 15.23 8.38211C14.27 7.80211 13.46 7.75211 12.85 8.22211C12.42 8.56211 12.27 9.05211 12.2 9.39211C11.61 12.1721 13.13 14.7921 14.71 16.9921C17.28 20.5821 21.29 24.6821 24.4 27.6621C18.95 25.7221 12.65 24.7421 5.16999 24.6921C2.96999 24.6721 1.61999 25.3221 1.14999 26.6121C0.50999 28.3521 1.83999 30.0221 4.70999 31.0921C8.28999 32.4321 11.67 34.4521 14.93 36.4021C17.22 37.7721 19.59 39.1921 22.04 40.3821C24.7 41.6821 27.51 42.7321 30.38 43.5221C31.34 43.7821 32.54 43.9921 33.79 44.0821C36.32 44.2521 39 43.8821 40.04 42.2721C40.17 42.0621 40.27 41.8421 40.34 41.6121C41.52 42.3821 43.03 42.8521 44.74 42.9621C45.12 42.9921 45.5 42.9921 45.9 42.9921C49.1 42.9221 52.16 41.9221 55.11 40.9621C56.39 40.5421 57.71 40.1121 59.01 39.7721C65.77 37.9821 73.12 38.3221 79.69 40.7221C80.08 40.8721 81.12 41.2521 81.87 40.5421C82.14 40.2921 82.32 39.9421 82.39 39.4721C82.74 37.4621 81.4 35.4121 78.61 33.7421ZM80.73 38.2721C76.79 36.2321 71.92 35.3121 66.59 35.6021C61.51 35.8821 56.47 37.2121 51.78 38.5921L51.7 38.6121C48.67 39.5021 45.54 40.4221 42.55 39.9421C42.92 39.8721 43.3 39.7621 43.68 39.6421C46.73 39.5321 50.48 38.1521 54.44 36.6821C58.04 35.3521 61.76 33.9721 64.96 33.6121C66.84 33.4021 68.87 33.3921 71.37 33.6121C73.22 33.7621 75.38 34.0421 77.31 34.8621C77.47 34.9521 77.63 35.0421 77.78 35.1321C78.8 35.7621 80.36 36.8921 80.73 38.2721ZM75.21 33.7721C73.9 33.4621 72.58 33.3121 71.39 33.2221C68.85 33.0021 66.81 33.0121 64.9 33.2221C61.65 33.5821 57.9 34.9721 54.28 36.3121C50.95 37.5421 47.77 38.7221 45.06 39.1121C47.02 38.2421 48.97 36.9921 50.32 36.1121L51.67 35.2521C54.3 33.5821 56.97 31.9021 59.71 30.4821C65.02 30.2921 70.42 31.4521 75.21 33.7721ZM53.4 20.4721C57.1 17.4521 61.4 15.9821 65.19 16.4721C69.52 17.0221 73.2 20.4421 73.57 24.2621C73.62 24.8021 73.51 25.1921 73.38 25.2521C73.29 25.2921 73.09 25.2821 72.87 25.2821C64.77 25.0321 57.67 29.5221 50.81 33.8721L49.45 34.7421C47.36 36.0921 42.48 39.2421 40.41 38.2921C40.17 38.1821 40.12 38.0621 40.09 37.9521C39.79 36.6221 42.61 33.2321 43.82 31.7821C44.27 31.2421 44.64 30.8021 44.85 30.5021C47.37 26.9421 49.99 23.2521 53.4 20.4721ZM36.84 35.0621C35.72 32.6021 34.34 30.6721 33 28.9621C31.94 27.6121 30.75 26.3221 29.7 25.1821C24.93 20.0321 20.56 15.3821 16.39 11.0221C21.21 13.9821 26.08 17.2621 30.06 21.4121C34.4 25.9421 37.17 31.1421 38.01 36.2721C37.63 35.8421 37.23 35.4421 36.84 35.0621ZM57.91 6.07211C55.48 8.85211 53.22 11.8221 51.2 14.9221C47.95 19.9121 45.27 25.3021 42.7 30.5621C42.65 30.6221 42.61 30.6721 42.56 30.7321C41.96 31.4521 41.38 32.1621 40.85 32.8621C41.37 30.8721 41.93 28.8521 42.68 26.9321C44.59 22.0421 47.76 17.6621 50.9 13.6621C53.39 10.4921 56.01 7.35211 58.57 4.30211C58.43 4.90211 58.2 5.49211 57.91 6.07211ZM55.98 9.30211C53.66 12.8921 50.83 17.5821 49.36 22.0721C47.37 24.2121 45.64 26.5721 43.98 28.9121C46.27 24.2521 48.69 19.5521 51.55 15.1521C53.17 12.6521 54.96 10.2421 56.86 7.94211C56.66 8.25211 56.46 8.57211 56.26 8.87211L55.98 9.30211ZM58.43 3.84211C55.82 6.95211 53.13 10.1721 50.59 13.4121C47.43 17.4421 44.24 21.8521 42.31 26.7921C41.42 29.0621 40.8 31.4421 40.21 33.7621C39.92 34.1721 39.66 34.5721 39.43 34.9621C39.35 34.5721 39.26 34.1821 39.15 33.8021C39.17 33.7321 39.2 33.6621 39.2 33.5821C39.22 28.6421 40.37 23.7021 42.48 19.2821V19.2721C43.19 17.8021 44 16.3821 44.91 15.0321C48.29 10.0621 53.05 6.15211 58.43 3.84211ZM43.72 2.51211C43.92 3.09211 43.98 3.75211 44.05 4.53211C44.21 6.48211 44.33 8.44211 44.42 10.3921C44.47 11.4121 44.48 12.3221 44.19 13.1021C44.17 13.1521 44.17 13.2021 44.17 13.2521C43.97 13.5321 43.77 13.8121 43.57 14.0921C43.37 14.3921 43.17 14.6921 42.98 14.9921C42.92 13.7321 42.72 12.4221 42.35 11.0621C41.96 9.62211 41.43 8.23211 40.85 6.89211C41.51 5.29211 42.47 3.80211 43.72 2.51211ZM40.77 11.4921C41.47 14.1021 41.55 16.4821 41 18.5721C40.39 19.8621 39.85 21.1821 39.4 22.5421C39.28 21.5721 39.12 20.5921 38.93 19.6321C39.18 17.8321 38.92 16.0121 38.67 14.2521C38.59 13.7121 38.51 13.1621 38.45 12.6221C38.2 10.4821 38.19 8.31211 38.4 6.17211C38.46 6.06211 38.52 5.95211 38.58 5.85211C39.43 7.66211 40.24 9.54211 40.77 11.4921ZM37.91 7.07211C37.79 8.93211 37.82 10.8021 38.04 12.6621C38.1 13.2121 38.18 13.7621 38.26 14.3021C38.44 15.5921 38.63 16.9221 38.62 18.2321C38.08 16.0121 37.35 13.8321 36.42 11.7621C36.68 10.1321 37.19 8.54211 37.91 7.07211ZM28.32 2.08211C30.1 4.41211 31.92 6.82211 33.39 9.40211C33.89 10.2721 34.35 11.1721 34.77 12.0921C34.8 12.2121 34.84 12.3221 34.92 12.4121C37.09 17.2621 38.18 22.6921 38.02 28.0021C38.02 28.0121 38.03 28.0221 38.03 28.0321C37.93 28.6421 37.84 29.2621 37.77 29.8821C36.58 27.1821 34.92 24.5421 32.84 22.0721C30.14 15.5821 29.09 8.36211 28.32 2.09211C28.32 2.08211 28.32 2.08211 28.32 2.08211ZM13.85 9.56211C13.92 9.57211 14.09 9.61211 14.4 9.80211C14.61 9.93211 14.82 10.0621 15.03 10.1921C19.52 14.8621 24.22 19.8621 29.4 25.4521C30.45 26.5821 31.63 27.8621 32.68 29.2021C33.83 30.6721 35.02 32.3021 36.04 34.3021C35.49 33.8121 34.93 33.3521 34.36 32.9221C34.08 32.5721 33.8 32.2221 33.53 31.8621C33.25 31.5021 32.97 31.1421 32.69 30.7821C31.38 29.1621 29.92 27.6721 28.5 26.2421L21.16 18.8021C18.46 16.0621 15.67 13.2321 13.84 9.78211C13.84 9.77211 13.82 9.77211 13.82 9.76211V9.75211C13.83 9.65211 13.85 9.59211 13.85 9.56211ZM16.04 16.0721C14.82 14.3621 13.62 12.3821 13.72 10.4421C15.58 13.7421 18.25 16.4721 20.85 19.1121L28.19 26.5521C29.6 27.9821 31.06 29.4621 32.36 31.0621C32.62 31.3921 32.88 31.7321 33.14 32.0621C31.67 31.0521 30.18 30.2121 28.78 29.5221C26.06 27.0721 19.59 21.0321 16.04 16.0721ZM5.16999 26.3521C6.83999 26.3621 8.43999 26.4221 9.98999 26.5221C15.88 26.9221 20.96 28.0021 25.4 29.7921C28.92 31.2121 33.86 33.7921 37.38 38.0221C37.9 38.6521 38.28 39.2221 38.52 39.7221C38.54 39.8421 38.58 39.9621 38.66 40.0621C38.67 40.0721 38.67 40.0721 38.68 40.0821C38.79 40.4021 38.84 40.6721 38.82 40.9221C38.14 40.8821 37.47 40.5821 36.89 40.2721C35.69 39.6321 34.54 38.8321 33.44 38.0621C31.93 37.0021 30.37 35.9121 28.62 35.2021C27.2 34.6221 25.69 34.3021 24.22 34.0021L23.69 33.8921C19.46 32.9921 15.22 31.8121 11.12 30.6821C9.37999 30.2021 7.57999 29.7021 5.89999 28.9521C4.97999 28.5421 3.71999 27.8621 3.13999 26.7321C3.63999 26.4221 4.45999 26.3421 5.16999 26.3521ZM30.81 41.9721C28.04 41.2121 25.33 40.2021 22.76 38.9421C20.37 37.7821 18.03 36.3821 15.77 35.0221C12.44 33.0321 8.99999 30.9721 5.27999 29.5821C4.96999 29.4621 2.23999 28.4021 2.67999 27.1921C2.70999 27.1121 2.74999 27.0521 2.79999 26.9821C3.44999 28.1821 4.74999 28.8821 5.70999 29.3121C7.41999 30.0721 9.22999 30.5721 10.99 31.0621C15.09 32.2021 19.34 33.3821 23.59 34.2821L24.12 34.3921C25.57 34.6921 27.07 35.0121 28.45 35.5721C30.15 36.2621 31.69 37.3421 33.19 38.3821C34.31 39.1621 35.46 39.9721 36.69 40.6221C37.28 40.9421 37.97 41.2521 38.7 41.3121C38.68 41.3421 38.68 41.3721 38.66 41.4021C37.88 42.6421 34.21 42.9021 30.81 41.9721ZM80.78 39.2321C80.77 39.2921 80.76 39.3221 80.76 39.3521C80.68 39.3421 80.54 39.3321 80.25 39.2221C73.36 36.7121 65.67 36.3521 58.59 38.2221C57.24 38.5821 55.9 39.0121 54.6 39.4421C51.63 40.4121 48.82 41.3321 45.86 41.3921C44.83 41.4121 42.58 41.2921 40.96 40.0921H40.97C41.07 40.1021 41.18 40.0921 41.29 40.0921C42.01 40.3021 42.74 40.4321 43.48 40.4821C46.25 40.6721 49.07 39.8321 51.82 39.0221L51.89 39.0021C56.56 37.6221 61.57 36.3121 66.61 36.0321C71.99 35.7321 76.88 36.6921 80.8 38.7821C80.81 38.9221 80.81 39.0721 80.78 39.2321Z" fill="#004068"/>
</svg>
