<svg width="19" height="29" viewBox="0 0 19 29" fill="none" xmlns="http://www.w3.org/2000/svg">
<path d="M17.3954 15.5373C17.438 15.4637 17.4948 15.3754 17.5516 15.2725C17.5658 15.2577 17.5658 15.243 17.58 15.2283C17.6936 14.9929 17.8782 14.6545 17.8924 14.6398C18.6308 13.139 19 11.5353 19 9.84323C19 9.66667 19 9.49011 18.9858 9.31355C18.9858 9.23998 18.9716 9.16641 18.9716 9.07813L18.9574 8.931C18.9574 8.88686 18.9574 8.82801 18.9432 8.78387C18.9432 8.72501 18.929 8.65145 18.929 8.59259L18.9148 8.46017C18.9148 8.40132 18.9006 8.32775 18.9006 8.2689C18.9006 8.22476 18.8864 8.16591 18.8722 8.12177L18.858 7.98935C18.8438 7.91578 18.8438 7.84221 18.8296 7.76865C18.8154 7.70979 18.8012 7.65094 18.8012 7.59208L18.7728 7.43024C18.7586 7.37139 18.7586 7.32725 18.7444 7.26839C18.7302 7.19483 18.7018 7.12126 18.6876 7.03298L18.6592 6.90056C18.645 6.85642 18.645 6.82699 18.6308 6.78285C18.6024 6.69457 18.5882 6.621 18.5598 6.53272L18.5314 6.42973C18.5172 6.38559 18.503 6.34145 18.503 6.31202C18.4746 6.22374 18.4462 6.15018 18.4178 6.07661L18.3752 5.97362C18.361 5.92948 18.3468 5.90005 18.3326 5.87062C18.3042 5.78234 18.2616 5.69406 18.2332 5.60578L18.1764 5.50279C18.1622 5.47336 18.148 5.44394 18.148 5.41451C18.0912 5.2968 18.0486 5.1791 17.9918 5.06139L17.9492 4.97311C17.8924 4.8554 17.8356 4.75241 17.7646 4.61999L17.7362 4.56114C17.6652 4.44343 17.6084 4.32572 17.5232 4.1933C17.5232 4.1933 17.509 4.16388 17.4948 4.16388C17.4238 4.04617 17.3528 3.92846 17.2676 3.81076C17.2676 3.81076 17.2534 3.78133 17.2392 3.78133C17.154 3.66362 17.0688 3.54592 16.9836 3.44292C16.9836 3.44292 16.9694 3.42821 16.9694 3.4135C16.8842 3.29579 16.7848 3.17808 16.6854 3.06038C16.5859 2.94267 16.4865 2.83968 16.3871 2.72197C14.6405 0.941654 12.2691 0 9.5 0C3.90508 0 0 4.04617 0 9.84323C0 11.6383 0.440209 13.4039 1.27803 14.9635L1.42003 15.2283C1.42003 15.243 1.43423 15.243 1.43423 15.2577L1.67564 15.6403C1.70404 15.6844 1.73244 15.7286 1.74664 15.7433L7.82437 26.3222L9.23019 28.7793C9.3012 28.9117 9.4432 28.9853 9.5852 28.9853C9.7414 28.9853 9.86921 28.897 9.94021 28.7646L11.3176 26.3075L17.2392 15.7433C17.3102 15.6844 17.3528 15.6109 17.3954 15.5373ZM14.8251 9.96093C14.8251 10.0198 14.8109 10.0639 14.7967 10.1081L14.7825 10.2405C14.7683 10.3288 14.7541 10.417 14.7399 10.5053C14.7257 10.5789 14.7115 10.6377 14.6973 10.7113L14.6689 10.8584C14.6547 10.9173 14.6405 10.9909 14.6263 11.0497C14.5979 11.138 14.5695 11.2116 14.5411 11.2998L14.4843 11.4176C14.4701 11.4617 14.4559 11.5058 14.4417 11.55C14.3991 11.653 14.3565 11.756 14.2997 11.8442L14.2571 11.9325C14.2429 11.9619 14.2287 12.0061 14.2145 12.0355C14.1435 12.1532 14.0725 12.2709 14.0015 12.3886C13.9731 12.4328 13.9589 12.4622 13.9447 12.4916C13.8595 12.6093 13.7743 12.7418 13.6749 12.8595C13.6607 12.8889 13.6465 12.9036 13.6323 12.9183C13.5329 13.036 13.4335 13.1684 13.3057 13.2861C12.2833 14.3455 10.9484 14.934 9.5284 14.9488C9.5142 14.9488 9.5 14.9488 9.4716 14.9488C6.50374 14.9488 4.10389 12.4475 4.10389 9.38711C4.10389 6.31202 6.51794 3.82547 9.4716 3.82547H9.5284C10.9484 3.84018 12.2833 4.42872 13.2915 5.47336L13.3199 5.50279C13.4335 5.6205 13.5471 5.75292 13.6323 5.87062C13.6465 5.88534 13.6607 5.90005 13.6749 5.91476C13.7743 6.03247 13.8595 6.16489 13.9447 6.29731C13.9589 6.31202 13.9731 6.34145 13.9873 6.37088C14.0725 6.51801 14.1435 6.63572 14.2145 6.75342C14.2287 6.78285 14.2429 6.82699 14.2571 6.85642L14.2713 6.90056C14.3281 7.03298 14.3849 7.13597 14.4275 7.23897C14.4417 7.2831 14.4559 7.32725 14.4843 7.37139L14.5269 7.50381C14.5553 7.57737 14.5837 7.66565 14.6121 7.75393C14.6263 7.81279 14.6405 7.87164 14.6547 7.94521L14.6831 8.07763C14.6973 8.15119 14.7257 8.21005 14.7257 8.28361C14.7399 8.37189 14.7541 8.46017 14.7683 8.54845L14.7825 8.68087C14.7967 8.72501 14.7967 8.78387 14.7967 8.82801C14.8109 9.01928 14.8251 9.21055 14.8251 9.40183C14.8535 9.57839 14.8393 9.76966 14.8251 9.96093Z" fill="#232F3C"/>
</svg>
