<svg width="242" height="88" viewBox="0 0 242 88" fill="none" xmlns="http://www.w3.org/2000/svg">
<g clip-path="url(#clip0_13_93)">
<path d="M1.0648 74.4932C0.8712 74.4932 0.69696 74.4738 0.5808 74.4157C0.1936 74.3188 0 74.0669 0 73.6599C0 73.156 0.63888 71.2569 1.936 67.9819C7.41488 54.0871 14.4426 41.8977 23.0384 31.4525C24.6066 29.5339 25.7294 28.3131 26.4458 27.7705C27.1427 27.2278 27.7235 26.9565 28.1494 26.9565C28.3818 26.9565 28.5754 27.0147 28.7496 27.1116C29.3885 27.4216 29.6982 28.0224 29.6982 28.9332C29.6982 29.6696 29.4466 30.7936 28.9432 32.3051C28.4979 33.7198 27.6654 36.0647 26.4458 39.3397C24.4323 44.7658 22.1478 51.1609 19.5923 58.5249C18.6824 61.1217 18.2371 62.4782 18.2371 62.6139C18.3726 62.6333 19.631 61.2574 22.051 58.4862C24.8582 55.308 28.6528 51.3741 33.4541 46.7037C38.2554 42.014 43.1728 37.4406 48.187 32.9834C49.6584 31.6656 50.6458 30.8905 51.1491 30.6579C51.6718 30.4254 52.059 30.2897 52.3107 30.2897C52.6398 30.2897 52.9109 30.406 53.1432 30.6386C53.4723 30.8905 53.6272 31.2199 53.6272 31.6269C53.6272 32.1501 53.3174 32.964 52.7173 34.0686C52.1171 35.1732 51.1491 36.7236 49.852 38.739C45.2443 45.9867 41.411 52.6337 38.3522 58.6799C35.6998 63.9123 34.1123 67.1873 33.5896 68.5632C32.4086 71.877 31.4987 73.5242 30.8598 73.5242C30.7824 73.5242 30.6856 73.5049 30.5501 73.4467C30.1629 73.2917 29.9693 73.1173 29.9693 72.9429C29.9499 72.7491 29.9499 72.6328 29.9499 72.5747C29.9499 72.2452 30.0661 71.7801 30.2984 71.1794C31.0728 68.9121 32.3699 65.8889 34.151 62.1294C36.3387 57.6141 38.4877 53.5058 40.5786 49.785C42.6694 46.0836 45.1669 41.9753 48.0709 37.4793C49.4067 35.4445 50.0843 34.3593 50.0843 34.2624H50.0456C50.0262 34.2624 49.9294 34.3206 49.7746 34.4562C46.4059 37.4793 42.4758 41.1226 38.023 45.3472C32.3699 50.7152 28.3237 54.7654 25.8843 57.4978L23.4256 60.269C20.4829 63.6022 18.663 65.5013 17.9854 65.9858C17.5595 66.2959 17.1723 66.4315 16.8045 66.4315C15.9139 66.4315 15.488 65.9083 15.488 64.8812C15.488 64.203 15.972 62.4395 16.9594 59.5908C19.2245 52.8469 21.1992 47.2657 22.8642 42.8279C25.439 35.8709 26.9685 31.4912 27.4331 29.7277C18.4501 39.5141 10.7448 52.2074 4.29792 67.8075C2.7104 71.6251 1.91664 73.6211 1.91664 73.8343C1.91664 73.9118 1.8392 74.0281 1.66496 74.1831C1.49072 74.2994 1.27776 74.4157 1.0648 74.4932Z" fill="#606060"/>
<path d="M44.4312 60.25C43.0373 60.25 42.2822 59.6492 42.1274 58.4283C42.1274 57.7307 42.805 56.6649 44.1795 55.2889C46.4059 53.0604 47.916 51.9558 48.7485 51.9558L49.1938 51.9945C49.3874 51.9945 49.6971 51.9364 50.0843 51.8007C50.4715 51.6651 50.7619 51.6069 50.9749 51.6069C51.4589 51.6069 51.9042 51.8007 52.3107 52.1689C52.7366 52.5565 52.9302 52.9441 52.9302 53.351C52.9302 54.0874 52.8722 54.6688 52.7366 55.0952V55.1727C52.7366 55.2696 53.0077 55.3277 53.5691 55.3277C55.8149 55.3277 57.1894 55.5021 57.7315 55.8509C57.9832 56.006 58.1187 56.2385 58.1187 56.568C58.1187 56.9168 57.9638 57.2075 57.6734 57.4013C57.4218 57.4981 56.7054 57.5563 55.5245 57.5563C54.0338 57.5563 52.5818 57.4594 51.1685 57.2462C48.3806 59.2616 46.1542 60.25 44.4312 60.25ZM44.7797 58.0601C45.225 58.0601 46.251 57.6726 47.8386 56.9168L48.4 56.6261C48.4 56.6067 48.3613 56.5292 48.2838 56.4323C47.6837 55.754 47.3739 55.3858 47.3546 55.3277C47.3352 55.2696 47.3158 55.2502 47.2578 55.2502C47.0254 55.2502 46.4446 55.7734 45.5154 56.8005C44.9152 57.4594 44.6054 57.847 44.6054 57.9826C44.6248 58.0408 44.6635 58.0601 44.7797 58.0601ZM50.2198 54.8432C50.3747 54.8432 50.5877 54.5332 50.8587 53.8937C50.8587 53.8743 50.8394 53.8549 50.82 53.8549C50.7426 53.8549 50.5683 53.9324 50.2973 54.0874C49.8907 54.3394 49.6971 54.5138 49.6971 54.6107C49.6971 54.6688 49.7746 54.7076 49.9101 54.7657C50.0262 54.8238 50.1424 54.8432 50.2198 54.8432Z" fill="#606060"/>
<path d="M57.2475 58.6214C57.0152 58.6214 56.8216 58.5827 56.6474 58.5052C56.2021 58.2338 55.9698 57.8656 55.9698 57.4006C55.9698 56.9936 56.3182 56.1215 57.0346 54.7844C58.2736 52.3039 59.1448 50.7923 59.6869 50.2109C59.9192 50.0172 60.1322 49.9009 60.3645 49.9009C60.5 49.9009 60.6162 49.9203 60.7517 49.9784C61.1582 50.114 61.3518 50.366 61.3518 50.7729C61.3518 51.0442 60.8485 52.0326 59.8418 53.7185L59.048 55.2301L59.4352 54.9976C60.5194 54.2418 62.0488 53.2728 64.0429 52.0907C65.5336 51.1993 66.579 50.7729 67.2179 50.7729C68.0504 50.7729 68.515 51.2962 68.6118 52.362C68.6118 52.6333 68.457 53.1372 68.1666 53.8736C67.973 54.3193 67.8568 54.61 67.8568 54.7456L67.8955 54.7844C68.0504 54.7262 68.6312 54.3774 69.6379 53.7185C71.3029 52.6527 72.4645 52.1295 73.1614 52.1295C73.4712 52.1295 73.781 52.207 74.0907 52.3814C74.4005 52.5364 74.6134 52.769 74.6909 53.0403C74.7877 53.3116 74.8264 53.7379 74.8264 54.3193L74.7877 55.5014C74.7877 56.1991 75.1942 56.5673 76.0267 56.5673C76.3752 56.5673 76.7818 56.5091 77.227 56.4122C79.3954 55.9084 80.7118 55.6564 81.1571 55.6564C81.7186 55.6564 81.9896 55.9665 81.9896 56.606C81.9896 56.9936 81.7186 57.2649 81.1958 57.4199C80.6731 57.575 80.0149 57.7687 79.2405 57.9432C78.4661 58.1369 77.711 58.2726 76.9754 58.3695C76.2397 58.4664 75.717 58.5245 75.4072 58.5245C73.6454 58.5245 72.7549 57.6331 72.7549 55.8696L72.7936 54.9976C72.7936 54.6487 72.6581 54.4743 72.4064 54.4743C72.0773 54.4743 71.5546 54.7456 70.8576 55.2689C68.5538 56.9936 67.005 57.8463 66.1725 57.8463C65.7466 57.8463 65.3981 57.73 65.127 57.4781C64.856 57.2455 64.7205 56.8967 64.7205 56.4704C64.7205 56.044 65.0302 55.2301 65.6304 54.048L65.7853 53.6023L65.7466 53.5635C65.6885 53.6216 65.611 53.6604 65.5142 53.7185C65.4174 53.7767 65.3013 53.8348 65.1851 53.9123C65.069 53.9898 64.9334 54.0674 64.7592 54.1643C64.6043 54.2612 64.4107 54.358 64.2171 54.5131C64.0235 54.6487 63.4234 55.0363 62.436 55.6758C59.4158 57.6525 57.6734 58.6214 57.2475 58.6214Z" fill="#606060"/>
<path d="M84.4096 60.3273C81.5637 60.3273 80.131 59.4165 80.131 57.5562C80.131 56.8973 80.3246 56.1415 80.6925 55.2888C81.4475 53.7966 82.493 52.6533 83.8094 51.8587C85.1259 51.0642 86.365 50.6572 87.5266 50.6572C87.7589 50.6572 87.9718 50.6766 88.1654 50.696C89.2302 50.9285 89.7723 51.4324 89.8304 52.2075C89.8304 52.9827 89.327 53.7772 88.3203 54.5524C86.423 55.9477 84.6806 56.626 83.0931 56.626H82.5704C82.493 56.8585 82.4542 57.0523 82.4542 57.2267C82.4542 57.8856 82.9189 58.215 83.8482 58.215C85.2034 58.215 87.0426 57.7693 89.327 56.8973C91.3986 56.0833 92.5408 55.6958 92.7731 55.6958C93.3346 55.6958 93.625 55.9671 93.6443 56.4903C93.6443 56.8004 93.5282 57.0523 93.3152 57.2655C93.1022 57.4786 92.5602 57.7693 91.6696 58.1569C88.8237 59.4941 86.3843 60.2111 84.4096 60.3273ZM84.0224 54.5524C84.4483 54.5524 85.1646 54.2423 86.1714 53.6028C87.0038 53.099 87.4104 52.7695 87.4104 52.6145C87.4104 52.5176 87.333 52.4595 87.1781 52.4595C87.0232 52.4595 86.8296 52.4982 86.5779 52.5757C86.0939 52.7308 85.2421 53.3897 84.0224 54.5524Z" fill="#606060"/>
<path d="M102.434 58.6218C100.362 58.6218 99.3362 57.4978 99.3362 55.2499C99.3362 54.4941 99.2974 54.1065 99.22 54.1065C99.0651 54.1065 98.2714 54.6491 96.8387 55.7344C96.2386 56.1801 95.6578 56.6452 95.0963 57.0909C93.8573 58.0986 93.0635 58.6024 92.715 58.6024C92.444 58.6024 92.1923 58.4862 91.96 58.2536C91.689 58.0598 91.5341 57.7691 91.5341 57.4203C91.5341 56.9746 91.9019 56.0057 92.657 54.5329C93.3926 53.0601 93.8766 52.1492 94.0702 51.781C94.38 51.2578 94.7478 50.9671 95.1738 50.9478C95.8126 50.9478 96.1224 51.2578 96.1224 51.8586C96.1224 52.0524 95.9675 52.4593 95.6965 53.0794C95.4061 53.6802 95.2706 54.0096 95.2706 54.0678C95.2706 54.0871 95.2899 54.1065 95.348 54.1065C97.5744 52.5174 99.007 51.7229 99.6653 51.7229C99.8976 51.7229 100.111 51.781 100.343 51.9167C100.769 52.1105 101.079 52.4206 101.272 52.8275C101.466 53.2345 101.563 53.8546 101.601 54.6879C101.659 55.6762 101.717 56.2188 101.795 56.3351C101.872 56.4514 102.047 56.5095 102.318 56.5095C102.898 56.5095 103.924 56.3157 105.415 55.9475C106.616 55.6375 107.371 55.5018 107.642 55.5018C108.28 55.5018 108.59 55.8119 108.59 56.4126C108.59 56.6452 108.493 56.8583 108.28 57.0521C107.855 57.4397 106.712 57.8467 104.873 58.2924C103.924 58.5249 103.111 58.6218 102.434 58.6218Z" fill="#606060"/>
<path d="M108.784 60.4044C107.274 60.4044 106.519 59.6874 106.519 58.2533C106.519 56.6643 107.758 53.3892 110.216 48.4088L112.036 44.6687C112.036 44.6105 111.843 44.5911 111.436 44.5911C111.03 44.5911 109.461 44.4167 106.712 44.0679C103.963 43.7191 101.853 43.5447 100.401 43.5447C99.4523 43.5447 98.736 43.6222 98.3101 43.7579C97.8648 43.8935 97.5163 43.971 97.2259 43.971C96.6451 43.971 96.3547 43.7191 96.3547 43.2152C96.3547 42.0719 97.9229 41.5099 101.079 41.5099C102.569 41.5099 105.512 41.7424 109.887 42.2269L113.372 42.537L113.972 41.5874C114.321 40.9867 114.611 40.5216 114.824 40.2309C115.037 39.9208 115.211 39.727 115.347 39.6301C115.482 39.5332 115.637 39.4751 115.812 39.4751C116.257 39.4751 116.586 39.7076 116.799 40.1921V40.3084C116.799 40.6378 116.702 41.0254 116.489 41.4905L116.16 42.4595C117.302 42.4595 118.425 42.3819 119.529 42.2269C122.297 41.8393 123.923 41.5293 124.369 41.2773C124.543 41.1029 124.678 40.9285 124.775 40.7541C125.027 40.4053 125.337 40.2309 125.724 40.2309C126.169 40.2309 126.537 40.4828 126.789 40.9867C126.866 41.1611 126.905 41.3355 126.905 41.4711C126.905 42.4982 125.588 43.3121 122.975 43.8935C121.194 44.3005 119.064 44.5524 116.625 44.6493L114.437 44.7656C110.623 52.3815 108.726 56.7805 108.726 57.9433C108.726 58.1758 108.823 58.2921 108.997 58.2921C111.088 58.0402 113.411 57.3813 115.947 56.2767C117.109 55.7922 117.844 55.5597 118.135 55.5597C118.386 55.5597 118.599 55.7147 118.774 56.0054C118.89 56.1604 118.967 56.3154 118.967 56.4511C118.967 57.1294 117.689 57.9627 115.134 58.9316C112.559 59.9199 110.449 60.4044 108.784 60.4044Z" fill="#606060"/>
<path d="M128.744 84.1052C128.434 84.1052 128.202 83.9695 128.028 83.6982C127.853 83.4269 127.757 83.2331 127.757 83.0781C127.757 82.6324 129.034 79.7643 131.609 74.5319C133.39 70.8305 134.3 68.9508 134.3 68.8926C134.3 68.8345 133.991 68.8151 133.352 68.8151C132.713 68.8151 132.287 68.6989 132.074 68.4469C131.842 68.2144 131.725 68.0012 131.725 67.8268C131.725 67.1873 132.364 66.8385 133.623 66.761C133.971 66.7416 134.281 66.7028 134.571 66.6834C134.842 66.6641 135.055 66.6447 135.191 66.6447C135.326 66.6447 135.694 66.1021 136.314 65.0168C137.456 62.9433 138.017 61.1217 138.017 59.5714C138.017 59.3 137.959 59.0481 137.824 58.8156C137.572 58.3892 136.701 57.8272 135.21 57.1102C132.655 55.87 131.261 54.5134 130.97 53.0213C130.912 52.7693 130.893 52.4011 130.893 51.9167C130.893 51.219 130.97 50.6764 131.125 50.2888C132.151 47.4401 134.978 44.7077 139.605 42.1109C142.373 40.6187 145.374 39.5335 148.607 38.8552C151.84 38.1769 154.803 37.8281 157.494 37.8281C161.075 37.8281 163.766 38.2351 165.547 39.0684C166.903 39.7273 167.909 40.735 168.568 42.0915C169.129 43.2736 169.4 44.4945 169.4 45.7541C169.4 48.3315 168.296 51.1027 166.109 54.0871C163.631 57.4978 159.372 60.676 153.292 63.6216C148.394 66.0439 143.806 67.6136 139.528 68.35L137.495 68.6989C136.178 71.6057 135.017 74.0281 134.01 75.966C131.706 80.3844 130.235 82.9424 129.576 83.6401C129.286 83.9695 129.015 84.1052 128.744 84.1052ZM138.637 66.2765C139.121 66.2765 140.341 66.0439 142.296 65.5595C147.407 64.2029 152.537 61.9356 157.648 58.7768C161.985 55.9087 164.928 52.6724 166.496 49.0873C166.941 47.9052 167.174 46.8006 167.174 45.7541C167.174 43.2542 166.07 41.607 163.844 40.7931C162.488 40.3474 160.32 40.1148 157.339 40.1148C155.5 40.1148 153.931 40.1924 152.615 40.3474C151.298 40.5024 149.808 40.7931 148.123 41.2582C142.703 42.6147 138.463 44.8239 135.384 47.8471C133.855 49.3392 133.081 50.657 133.081 51.8198C133.081 52.5755 133.294 53.1763 133.72 53.622C134.145 54.0677 134.997 54.591 136.256 55.1917C138.095 56.0831 139.198 56.8777 139.586 57.5753L139.934 58.1373C142.683 53.3895 144.387 50.4051 145.045 49.1648C145.432 48.4866 145.703 48.0602 145.897 47.8858C146.091 47.7114 146.284 47.6145 146.478 47.6145C147.117 47.6145 147.426 47.9633 147.426 48.6416C147.426 48.8354 145.529 52.4786 141.715 59.5326C139.605 63.4472 138.54 65.6757 138.54 66.2377C138.54 66.2571 138.579 66.2765 138.637 66.2765Z" fill="#606060"/>
<path d="M161.404 68.7378C160.843 68.7378 160.494 68.5053 160.34 68.0596C160.281 67.9433 160.262 67.827 160.262 67.7107C160.262 67.3038 160.901 65.7535 162.179 63.0792C163.456 60.3855 164.173 58.9321 164.347 58.6995C164.618 58.3507 164.947 58.1763 165.334 58.1763C165.896 58.1763 166.225 58.467 166.322 59.0483C166.322 59.1258 166.302 59.2227 166.283 59.3778C166.264 59.5134 166.051 59.9591 165.644 60.7149C165.238 61.4707 165.044 61.8777 165.044 61.9358L165.993 61.2188C167.096 60.2692 168.393 59.3584 169.884 58.5251C170.232 58.3507 170.542 58.2538 170.833 58.2538C171.336 58.2538 171.743 58.5057 172.072 59.0096C172.323 59.4165 172.459 59.8622 172.459 60.3273C172.459 60.7343 172.362 61.1994 172.188 61.7226C172.014 62.2459 171.917 62.6528 171.917 62.9241C171.917 63.2342 172.014 63.3892 172.207 63.4086C172.401 63.428 172.652 63.4474 172.982 63.4474C173.543 63.4474 174.221 63.3698 175.053 63.1954C175.886 63.0404 176.524 62.9435 176.989 62.9435C177.725 62.9435 178.093 63.2536 178.093 63.8543C178.093 64.4163 177.918 64.7651 177.57 64.9202C177.086 65.1139 176.253 65.2884 175.072 65.424C173.892 65.5597 173.136 65.6372 172.807 65.6372C170.62 65.6372 169.516 64.7457 169.516 62.9823C169.516 62.6528 169.574 62.3428 169.69 62.0714C169.807 61.8001 169.865 61.587 169.865 61.4707C169.865 61.3157 169.807 61.2382 169.671 61.2382C169.536 61.2382 169.342 61.335 169.071 61.5482C167.677 62.4978 166.186 63.8931 164.56 65.7341C162.934 67.5557 162.043 68.5247 161.888 68.5828C161.714 68.6991 161.559 68.7378 161.404 68.7378Z" fill="#606060"/>
<path d="M177.221 67.5361C175.827 67.5361 175.072 66.9353 174.918 65.7145C174.918 65.0168 175.595 63.951 176.95 62.5751C179.177 60.3465 180.687 59.2419 181.519 59.2419L181.984 59.2806C182.178 59.2806 182.487 59.2225 182.875 59.0869C183.262 58.9512 183.552 58.8931 183.765 58.8931C184.249 58.8931 184.694 59.0869 185.101 59.4551C185.507 59.8426 185.72 60.2302 185.72 60.6372C185.72 61.3736 185.662 61.9549 185.527 62.3813V62.4588C185.527 62.5557 185.798 62.6138 186.359 62.6138C188.605 62.6138 189.999 62.7882 190.522 63.1371C190.773 63.2921 190.909 63.5246 190.909 63.8541C190.909 64.2029 190.754 64.4936 190.464 64.6874C190.212 64.7843 189.496 64.8424 188.315 64.8424C186.824 64.8424 185.372 64.7455 183.959 64.5324C181.171 66.5284 178.925 67.5361 177.221 67.5361ZM177.551 65.3269C177.996 65.3269 179.022 64.9393 180.609 64.1835L181.171 63.8735C181.171 63.8541 181.132 63.7766 181.055 63.6797C180.455 63.0014 180.145 62.6332 180.125 62.5751C180.106 62.5169 180.087 62.4976 180.029 62.4976C179.796 62.4976 179.215 63.0208 178.286 64.0479C177.686 64.7068 177.376 65.0943 177.376 65.23C177.396 65.3075 177.454 65.3269 177.551 65.3269ZM183.01 62.11C183.165 62.11 183.378 61.7999 183.649 61.1604C183.649 61.141 183.63 61.1217 183.61 61.1217C183.533 61.1217 183.359 61.1992 183.087 61.3542C182.681 61.6061 182.487 61.7805 182.487 61.8774C182.487 61.9356 182.565 61.9743 182.7 62.0325C182.816 62.0906 182.933 62.11 183.01 62.11Z" fill="#606060"/>
<path d="M182.139 75.094C181.945 75.094 181.752 75.0746 181.577 75.0165C180.822 74.7646 180.3 74.2801 179.99 73.5437C179.893 73.2336 179.835 72.9623 179.835 72.7104C179.835 72.5554 179.854 72.381 179.912 72.1872C180.59 70.0749 182.952 67.9626 186.979 65.8696L188.683 65.0363L190.27 61.3349C190.677 60.3854 190.967 59.8621 191.161 59.7652C191.354 59.6683 191.509 59.6296 191.625 59.6296C191.78 59.6296 191.954 59.6877 192.148 59.8234C192.342 59.959 192.477 60.0753 192.535 60.2303C192.593 60.366 192.613 60.4823 192.613 60.5985C192.613 60.9474 192.342 61.7225 191.819 62.9046C191.548 63.5635 191.412 63.9317 191.412 64.048C191.412 64.0674 191.432 64.0868 191.49 64.0868H191.567C194.394 63.331 196.562 62.9434 198.111 62.9434C199.021 62.9434 199.466 63.2728 199.466 63.9317C199.466 64.3774 199.156 64.7069 198.556 64.8813C198.169 64.9782 197.627 65.0945 196.891 65.2301C194.626 65.6177 192.38 66.1603 190.154 66.8967C189.128 68.9121 188.334 70.3074 187.811 71.1019C185.933 73.7569 184.056 75.094 182.139 75.094ZM182.274 72.9042C183.494 72.9042 184.907 71.6252 186.553 69.0865C186.747 68.7377 186.863 68.5052 186.863 68.4083C186.805 68.4083 186.398 68.6408 185.624 69.1253C184.675 69.7842 183.843 70.4624 183.126 71.1601C182.429 71.8577 182.061 72.4003 182.061 72.7492C182.061 72.8461 182.139 72.9042 182.274 72.9042ZM193.019 59.1257C192.768 59.1257 192.535 59.0288 192.342 58.8157C192.148 58.6219 192.032 58.3893 192.032 58.1374C192.032 58.0018 192.071 57.8661 192.148 57.7304C192.303 57.3429 192.593 57.1685 193.019 57.1685C193.252 57.1685 193.464 57.2654 193.677 57.4785C193.89 57.6723 194.007 57.9049 194.007 58.1568C194.007 58.3893 193.89 58.6025 193.677 58.8157C193.464 59.0095 193.252 59.1257 193.019 59.1257Z" fill="#606060"/>
<path d="M201.867 67.5944C199.021 67.5944 197.588 66.6836 197.588 64.8232C197.588 64.1644 197.782 63.4086 198.15 62.5559C198.905 61.0637 199.95 59.9204 201.267 59.1258C202.583 58.3313 203.822 57.9243 204.984 57.9243C205.216 57.9243 205.429 57.9437 205.623 57.9631C206.687 58.1956 207.229 58.6995 207.288 59.4746C207.288 60.2498 206.784 61.0443 205.777 61.8195C203.88 63.2148 202.157 63.893 200.55 63.893H200.028C199.95 64.1256 199.911 64.3194 199.911 64.4938C199.911 65.1527 200.376 65.4821 201.305 65.4821C202.66 65.4821 204.5 65.0364 206.784 64.1644C208.856 63.3504 209.998 62.9629 210.23 62.9629C210.792 62.9629 211.082 63.2342 211.101 63.7574C211.101 64.0675 210.985 64.3194 210.772 64.5326C210.559 64.7457 210.017 65.0364 209.127 65.424C206.3 66.7611 203.861 67.4782 201.867 67.5944ZM201.499 61.8195C201.925 61.8195 202.641 61.5094 203.648 60.8699C204.48 60.3661 204.887 60.0366 204.887 59.8816C204.887 59.7847 204.809 59.7266 204.655 59.7266C204.5 59.7266 204.306 59.7653 204.054 59.8428C203.551 59.9979 202.699 60.6568 201.499 61.8195Z" fill="#606060"/>
<path d="M210.869 68.815C210.366 68.815 209.94 68.7375 209.63 68.5824C208.623 68.1948 208.12 67.4391 208.12 66.3151C208.12 65.0942 208.952 63.6214 210.617 61.8579C212.902 59.4549 214.877 58.2534 216.522 58.2534C217.18 58.2534 217.723 58.4472 218.148 58.8542C218.497 59.1642 218.671 59.4937 218.671 59.8813C218.671 60.0557 218.632 60.2495 218.536 60.4626C218.439 60.6758 218.323 60.8114 218.129 60.8502C217.955 60.889 217.819 60.9083 217.742 60.9083C217.51 60.9083 217.277 60.8308 217.026 60.6758C216.851 60.5789 216.658 60.5208 216.464 60.5208C215.612 60.5208 214.373 61.2572 212.766 62.7493C212.379 63.1369 212.011 63.5439 211.624 63.9896C211.237 64.4353 210.927 64.8617 210.676 65.2492C210.424 65.6368 210.288 65.9081 210.288 66.0244C210.288 66.1988 210.579 66.2957 211.16 66.2957C212.592 66.2957 214.799 65.7143 217.8 64.571C220.781 63.4276 222.446 62.8462 222.776 62.8462C223.376 62.8462 223.685 63.2338 223.685 64.0284C223.685 64.2609 223.627 64.4353 223.492 64.5516C223.085 65.0748 221.285 65.9275 218.11 67.0709C214.915 68.2336 212.515 68.815 210.869 68.815Z" fill="#606060"/>
<path d="M223.879 67.672C222.369 67.672 221.614 66.955 221.614 65.5209C221.614 63.9318 222.853 60.6568 225.312 55.6764L227.132 51.9362C227.132 51.8781 226.938 51.8587 226.531 51.8587C226.125 51.8587 224.557 51.6843 221.808 51.3355C219.058 50.9867 216.948 50.8123 215.496 50.8123C214.548 50.8123 213.831 50.8898 213.405 51.0254C212.96 51.1611 212.612 51.2386 212.321 51.2386C211.74 51.2386 211.45 50.9867 211.45 50.4828C211.45 49.3395 213.018 48.7775 216.174 48.7775C217.664 48.7775 220.607 49.01 224.983 49.4945L228.467 49.8046L229.068 48.855C229.416 48.2542 229.706 47.7891 229.919 47.4985C230.132 47.1884 230.307 46.9946 230.442 46.8977C230.578 46.8008 230.732 46.7427 230.907 46.7427C231.352 46.7427 231.681 46.9752 231.894 47.4597V47.576C231.894 47.9054 231.797 48.293 231.584 48.7581L231.236 49.7852C232.378 49.7852 233.501 49.7077 234.604 49.5526C237.373 49.165 238.999 48.855 239.444 48.6031C239.619 48.4286 239.754 48.2542 239.851 48.0798C240.103 47.731 240.412 47.5566 240.8 47.5566C241.245 47.5566 241.613 47.8085 241.864 48.3124C241.942 48.4868 241.981 48.6612 241.981 48.7968C241.981 49.8239 240.664 50.6379 238.051 51.2192C236.25 51.6262 234.14 51.8781 231.7 51.975L229.513 52.0913C225.699 59.7072 223.802 64.1063 223.802 65.269C223.802 65.5015 223.898 65.6178 224.073 65.6178C226.164 65.3659 228.487 64.707 231.023 63.6024C232.184 63.1179 232.92 62.8854 233.211 62.8854C233.462 62.8854 233.675 63.0404 233.849 63.3311C233.966 63.4861 234.043 63.6412 234.043 63.7768C234.043 64.4551 232.765 65.2884 230.21 66.2573C227.654 67.1875 225.544 67.672 223.879 67.672Z" fill="#606060"/>
<path d="M2.1296 87.9805C1.452 87.9805 0.851845 87.7867 0.290405 87.3798L0.484005 86.9922C0.484005 86.9922 0.522725 87.0116 0.561445 87.0503C0.619525 87.0891 0.658245 87.1085 0.677605 87.1279C0.716325 87.1472 0.755045 87.186 0.832485 87.2247C0.909925 87.2635 0.968005 87.3023 1.02608 87.3216C1.08416 87.341 1.1616 87.3798 1.23904 87.4185C1.33584 87.4573 1.41328 87.4767 1.49072 87.4961C1.56816 87.5154 1.66496 87.5348 1.78112 87.5542C1.87792 87.5736 1.99408 87.5736 2.09088 87.5736C3.02016 87.5736 3.4848 87.2247 3.4848 86.5465C3.4848 86.2558 3.40736 86.0426 3.27184 85.907C3.13632 85.7713 2.88464 85.6357 2.53616 85.5194L1.47136 85.19C1.04544 85.0543 0.755045 84.8993 0.542085 84.7055C0.348485 84.5117 0.251685 84.221 0.251685 83.8528C0.251685 83.3877 0.425925 83.0389 0.774405 82.8063C1.12288 82.5738 1.58752 82.4575 2.18768 82.4575C2.82656 82.4575 3.34928 82.5932 3.7752 82.8451L3.60096 83.2327C3.17504 83.0001 2.7104 82.8839 2.18768 82.8839C1.23904 82.8839 0.755045 83.1939 0.755045 83.814C0.755045 84.0854 0.813125 84.2791 0.929285 84.4148C1.04544 84.5311 1.29712 84.6473 1.66496 84.7636L2.7104 85.0931C3.15568 85.2287 3.4848 85.4031 3.6784 85.6163C3.872 85.8101 3.98816 86.1008 3.98816 86.469C3.98816 86.7403 3.93008 86.9728 3.85264 87.1666C3.75584 87.3604 3.62032 87.5348 3.44608 87.6511C3.27184 87.7674 3.07824 87.8643 2.86528 87.9224C2.63296 87.9418 2.38128 87.9805 2.1296 87.9805Z" fill="#3D464D"/>
<path d="M8.34416 87.9812C7.53104 87.9812 6.8728 87.7293 6.3888 87.2448C5.9048 86.741 5.65312 86.0821 5.65312 85.2488C5.65312 84.3961 5.88544 83.7178 6.35008 83.1946C6.81472 82.6907 7.43424 82.4194 8.20864 82.4194C8.92496 82.4194 9.4864 82.652 9.91232 83.0977C10.3382 83.5628 10.5512 84.1635 10.5512 84.9387V85.2294H6.17584C6.17584 85.927 6.36944 86.489 6.75664 86.9154C7.14384 87.3417 7.68592 87.5355 8.34416 87.5355C8.67328 87.5355 8.98304 87.4774 9.31216 87.3805C9.62192 87.2642 9.89296 87.1285 10.1446 86.9347L10.3382 87.2836C10.0866 87.4774 9.79616 87.6518 9.42832 87.768C9.06048 87.9231 8.712 87.9812 8.34416 87.9812ZM6.21456 84.8806H10.1446C10.1059 84.2604 9.91232 83.776 9.56384 83.4078C9.21536 83.0396 8.77008 82.8651 8.20864 82.8651C7.6472 82.8651 7.18256 83.0396 6.81472 83.4078C6.46624 83.7566 6.25328 84.2604 6.21456 84.8806Z" fill="#3D464D"/>
<path d="M15.3138 87.9809C14.8298 87.9809 14.4038 87.8646 14.0166 87.6127C13.6294 87.3607 13.3778 87.0507 13.2229 86.6243L13.2035 87.8646H12.6808V87.7677C12.6808 87.7096 12.6808 87.6321 12.6808 87.5158C12.6808 87.4189 12.6808 87.3026 12.7002 87.1863C12.7002 87.0701 12.7002 86.9538 12.7195 86.8181C12.7195 86.6825 12.7195 86.5662 12.7195 86.4693V80.0161H13.2229V83.7369C13.3778 83.3299 13.6488 83.0199 14.036 82.7873C14.4232 82.5548 14.8298 82.4385 15.3138 82.4385C16.0494 82.4385 16.6302 82.6904 17.0562 83.1943C17.4821 83.6981 17.7144 84.357 17.7144 85.2097C17.7144 86.0624 17.5014 86.7406 17.0562 87.2445C16.6109 87.7483 16.0301 87.9809 15.3138 87.9809ZM15.3138 87.5545C15.9139 87.5545 16.3786 87.3414 16.7077 86.915C17.0368 86.4887 17.211 85.9073 17.211 85.1709C17.211 84.4539 17.0368 83.8919 16.7077 83.4656C16.3786 83.0392 15.9139 82.8454 15.3138 82.8454C14.6749 82.8454 14.1715 83.0586 13.8037 83.485C13.4358 83.9113 13.2422 84.4733 13.2422 85.1903C13.2422 85.9073 13.4358 86.4887 13.8037 86.915C14.1715 87.3414 14.6749 87.5545 15.3138 87.5545Z" fill="#3D464D"/>
<path d="M21.8768 87.9812C21.1218 87.9812 20.5216 87.7293 20.057 87.206C19.6117 86.7022 19.3794 86.0045 19.3794 85.1519C19.3794 84.3186 19.6117 83.6597 20.057 83.1558C20.5216 82.652 21.1218 82.4194 21.8768 82.4194C22.3221 82.4194 22.7093 82.5357 23.0384 82.7489C23.3675 82.962 23.6192 83.2527 23.7741 83.6016V82.5551H24.2774V87.8649H23.7741V86.7603C23.5998 87.1285 23.3675 87.4386 23.0384 87.6518C22.7286 87.8649 22.3414 87.9812 21.8768 87.9812ZM21.8962 87.5549C22.4963 87.5549 22.961 87.3417 23.2901 86.9154C23.6192 86.489 23.7934 85.9077 23.7934 85.1713C23.7934 84.4736 23.6192 83.9116 23.2707 83.4853C22.9222 83.0589 22.477 82.8651 21.8962 82.8651C21.296 82.8651 20.812 83.0783 20.4442 83.4853C20.0763 83.8922 19.9021 84.4736 19.9021 85.1713C19.9021 85.9077 20.0763 86.489 20.4442 86.9154C20.812 87.3417 21.296 87.5549 21.8962 87.5549Z" fill="#3D464D"/>
<path d="M27.1234 87.8643V83.8528C27.1234 83.659 27.1234 83.4459 27.104 83.2327C27.104 83.0195 27.0846 82.8451 27.0846 82.7288L27.0653 82.5544H27.588L27.6461 83.5427C27.7622 83.1552 27.9558 82.8839 28.2269 82.7094C28.4979 82.535 28.827 82.4575 29.2142 82.4575C29.3885 82.4575 29.5627 82.4769 29.737 82.4963L29.7176 82.9614C29.5434 82.9226 29.3885 82.9226 29.2336 82.9226C28.7496 82.9226 28.3624 83.097 28.072 83.4265C27.7816 83.7559 27.6461 84.2791 27.6461 84.9962V87.8836H27.1234V87.8643Z" fill="#3D464D"/>
<path d="M31.731 87.8646V80.0161H32.2344V85.0159L35.061 82.5548H35.7192L32.8346 85.0547L35.9322 87.8646H35.2739L32.215 85.0934V87.8646H31.731Z" fill="#3D464D"/>
<path d="M39.7848 87.9812C39.0298 87.9812 38.4296 87.7293 37.965 87.206C37.5197 86.7022 37.2874 86.0045 37.2874 85.1519C37.2874 84.3186 37.5197 83.6597 37.965 83.1558C38.4296 82.652 39.0298 82.4194 39.7848 82.4194C40.2301 82.4194 40.6173 82.5357 40.9464 82.7489C41.2755 82.962 41.5272 83.2527 41.6821 83.6016V82.5551H42.1855V87.8649H41.6821V86.7603C41.5079 87.1285 41.2755 87.4386 40.9464 87.6518C40.6366 87.8649 40.2301 87.9812 39.7848 87.9812ZM39.8042 87.5549C40.4043 87.5549 40.869 87.3417 41.1981 86.9154C41.5272 86.489 41.7015 85.9077 41.7015 85.1713C41.7015 84.4736 41.5272 83.9116 41.1787 83.4853C40.8303 83.0589 40.385 82.8651 39.8042 82.8651C39.204 82.8651 38.72 83.0783 38.3522 83.4853C37.9843 83.9116 37.8101 84.4736 37.8101 85.1713C37.8101 85.9077 37.9843 86.489 38.3522 86.9154C38.7007 87.3417 39.1847 87.5549 39.8042 87.5549Z" fill="#3D464D"/>
<path d="M44.9926 87.8649V83.3109L44.9539 82.5551H45.4186L45.4766 83.6209C45.6509 83.2334 45.9219 82.9427 46.2898 82.7295C46.6576 82.5163 47.0835 82.4194 47.5482 82.4194C48.8259 82.4194 49.4454 83.1558 49.4454 84.648V87.8649H48.9421V84.648C48.9421 83.4465 48.4774 82.8458 47.5482 82.8458C47.0254 82.8458 46.5995 82.9814 46.2317 83.2334C45.8638 83.4853 45.6122 83.8729 45.496 84.3573V87.8649H44.9926Z" fill="#3D464D"/>
<path d="M55.9891 87.8648V83.3107L55.9504 82.5549H56.415L56.4731 83.6208C56.6474 83.2332 56.9184 82.9231 57.2475 82.7293C57.5766 82.5162 57.9832 82.4193 58.4672 82.4193C59.3965 82.4193 59.9579 82.865 60.1709 83.7758C60.3451 83.3301 60.6162 82.9813 60.984 82.7487C61.3518 82.5162 61.7584 82.3999 62.223 82.3999C62.8038 82.3999 63.2685 82.5937 63.5589 82.9619C63.8687 83.3495 64.0235 83.8921 64.0235 84.6285V87.8454H63.5008V84.6285C63.5008 84.0471 63.3847 83.582 63.1717 83.2913C62.9587 82.9813 62.6296 82.8262 62.2037 82.8262C61.6616 82.8262 61.2163 82.9813 60.8872 83.2913C60.5581 83.6014 60.3451 84.0471 60.229 84.6285V87.8454H59.7256V84.6285C59.7256 84.0471 59.6095 83.582 59.3965 83.2913C59.1835 82.9813 58.8544 82.8262 58.4285 82.8262C57.9251 82.8262 57.4992 82.9619 57.1701 83.2138C56.841 83.4657 56.6086 83.8533 56.4731 84.3378V87.8454H55.9891V87.8648Z" fill="#3D464D"/>
<path d="M68.8442 87.9812C68.031 87.9812 67.3728 87.7293 66.8888 87.2254C66.4048 86.7216 66.1531 86.0627 66.1531 85.2294C66.1531 84.3767 66.4048 83.6984 66.8888 83.1752C67.3728 82.6714 68.031 82.4194 68.8442 82.4194C69.6573 82.4194 70.3155 82.6714 70.7995 83.1752C71.2835 83.6791 71.5352 84.3573 71.5352 85.2294C71.5352 86.0627 71.2835 86.7409 70.7995 87.2254C70.3155 87.7293 69.6573 87.9812 68.8442 87.9812ZM68.8442 87.5549C69.5218 87.5549 70.0638 87.3417 70.4317 86.9347C70.8189 86.5084 71.0125 85.9464 71.0125 85.2294C71.0125 84.493 70.8189 83.9116 70.4317 83.4853C70.0445 83.0589 69.5218 82.8458 68.8442 82.8458C68.1666 82.8458 67.6245 83.0589 67.2566 83.4853C66.8694 83.9116 66.6758 84.493 66.6758 85.2294C66.6758 85.9464 66.8694 86.5084 67.2566 86.9347C67.6438 87.3417 68.1666 87.5549 68.8442 87.5549Z" fill="#3D464D"/>
<path d="M73.7616 87.8648V83.3107L73.7229 82.5549H74.1875L74.2456 83.6208C74.4198 83.2332 74.6909 82.9231 75.02 82.7293C75.3491 82.5162 75.7557 82.4193 76.2397 82.4193C77.169 82.4193 77.7304 82.865 77.9434 83.7758C78.1176 83.3301 78.3886 82.9813 78.7565 82.7487C79.1243 82.5162 79.5309 82.3999 79.9955 82.3999C80.5763 82.3999 81.041 82.5937 81.3314 82.9619C81.6411 83.3495 81.796 83.8921 81.796 84.6285V87.8454H81.2926V84.6285C81.2926 84.0471 81.1765 83.582 80.9635 83.2913C80.7506 82.9813 80.4214 82.8262 79.9955 82.8262C79.4534 82.8262 79.0082 82.9813 78.679 83.2913C78.3499 83.6014 78.137 84.0471 78.0208 84.6285V87.8454H77.5174V84.6285C77.5174 84.0471 77.4013 83.582 77.1883 83.2913C76.9754 82.9813 76.6462 82.8262 76.2203 82.8262C75.717 82.8262 75.291 82.9619 74.9619 83.2138C74.6328 83.4657 74.4005 83.8533 74.265 84.3378V87.8454H73.7616V87.8648Z" fill="#3D464D"/>
<path d="M86.636 87.9812C85.8229 87.9812 85.1646 87.7293 84.6806 87.2448C84.1966 86.741 83.945 86.0821 83.945 85.2488C83.945 84.3961 84.1773 83.7178 84.6419 83.1946C85.1066 82.6907 85.7261 82.4194 86.5005 82.4194C87.2168 82.4194 87.7782 82.652 88.2042 83.0977C88.6301 83.5628 88.843 84.1635 88.843 84.9387V85.2294H84.4483C84.4483 85.927 84.6419 86.489 85.0291 86.9154C85.4163 87.3417 85.9584 87.5355 86.6166 87.5355C86.9458 87.5355 87.2555 87.4774 87.5846 87.3805C87.8944 87.2642 88.1654 87.1285 88.4171 86.9347L88.6107 87.2836C88.359 87.4774 88.0686 87.6518 87.7008 87.768C87.3523 87.9231 87.0038 87.9812 86.636 87.9812ZM84.5064 84.8806H88.4365C88.3978 84.2604 88.2042 83.776 87.8557 83.4078C87.5072 83.0396 87.0619 82.8651 86.5005 82.8651C85.939 82.8651 85.4744 83.0396 85.1066 83.4078C84.7581 83.7566 84.5451 84.2604 84.5064 84.8806Z" fill="#3D464D"/>
<path d="M91.0307 87.8649V83.3109L90.992 82.5551H91.4566L91.5147 83.6209C91.689 83.2334 91.96 82.9427 92.3278 82.7295C92.6957 82.5163 93.1216 82.4194 93.5862 82.4194C94.864 82.4194 95.4835 83.1558 95.4835 84.648V87.8649H94.9802V84.648C94.9802 83.4465 94.5155 82.8458 93.5862 82.8458C93.0635 82.8458 92.6376 82.9814 92.2698 83.2334C91.9019 83.4853 91.6502 83.8729 91.5341 84.3573V87.8649H91.0307Z" fill="#3D464D"/>
<path d="M98.2326 87.8648V83.3107L98.1939 82.5549H98.6586L98.7166 83.6208C98.8909 83.2332 99.1619 82.9231 99.491 82.7293C99.8202 82.5162 100.227 82.4193 100.711 82.4193C101.64 82.4193 102.201 82.865 102.414 83.7758C102.589 83.3301 102.86 82.9813 103.228 82.7487C103.595 82.5162 104.002 82.3999 104.467 82.3999C105.047 82.3999 105.512 82.5937 105.802 82.9619C106.112 83.3495 106.267 83.8921 106.267 84.6285V87.8454H105.764V84.6285C105.764 84.0471 105.648 83.582 105.435 83.2913C105.222 82.9813 104.892 82.8262 104.467 82.8262C103.924 82.8262 103.479 82.9813 103.15 83.2913C102.821 83.6014 102.608 84.0471 102.492 84.6285V87.8454H101.988V84.6285C101.988 84.0471 101.872 83.582 101.659 83.2913C101.446 82.9813 101.117 82.8262 100.691 82.8262C100.188 82.8262 99.7621 82.9619 99.433 83.2138C99.1038 83.4657 98.8715 83.8533 98.736 84.3378V87.8454H98.2326V87.8648Z" fill="#3D464D"/>
<path d="M110.933 88.0002C110.275 88.0002 109.771 87.8064 109.442 87.4188C109.113 87.0312 108.939 86.4692 108.939 85.7328V82.5547H109.442V85.7522C109.442 86.353 109.558 86.7987 109.81 87.1088C110.062 87.4188 110.429 87.5738 110.933 87.5738C111.184 87.5738 111.417 87.5351 111.649 87.4576C111.881 87.3801 112.056 87.2832 112.211 87.1669C112.365 87.0506 112.501 86.915 112.617 86.7793C112.733 86.6437 112.811 86.508 112.869 86.3723C112.927 86.2367 112.946 86.1204 112.946 86.0235V82.5547H113.45V86.7018C113.45 87.1669 113.45 87.5545 113.469 87.8645H113.004L112.966 86.8762C112.501 87.632 111.823 88.0002 110.933 88.0002Z" fill="#3D464D"/>
<path d="M7.86017 11.3946C7.41489 10.4063 6.96961 9.41793 6.52433 8.4296C6.07905 7.44127 5.65313 6.43357 5.22721 5.42586C5.07233 5.09642 4.93681 4.78635 4.82065 4.45691C4.68513 4.12747 4.54961 3.8174 4.43345 3.48796C4.31729 3.15852 4.18177 2.82908 4.04625 2.49963C4.04625 2.61591 4.04625 2.7128 4.04625 2.82908C4.04625 2.94535 4.04625 3.04224 4.04625 3.15852C4.04625 3.50734 4.02689 3.95306 4.00753 4.45691C3.98817 4.94138 3.96881 5.484 3.94945 6.06537C3.93009 6.62736 3.91073 7.18935 3.89137 7.77072C3.87201 8.35209 3.87201 8.87532 3.87201 9.37917C3.87201 9.59234 3.85265 9.82489 3.85265 10.0381C3.85265 10.2512 3.83329 10.4644 3.81393 10.6582C4.00753 10.6582 4.18177 10.6388 4.37537 10.6194C4.54961 10.6194 4.74321 10.6 4.93681 10.6V11.2589H2.07153V10.7551C2.38129 10.7551 2.61361 10.6776 2.74913 10.5613C2.88465 10.445 3.00081 10.2706 3.03953 10.0574C3.07825 9.84427 3.09761 9.6311 3.11697 9.37917L3.40737 2.57715C3.42673 2.38336 3.42673 2.17019 3.42673 1.9764C3.42673 1.78261 3.44609 1.58882 3.44609 1.39503C3.27185 1.39503 3.09761 1.41441 2.90401 1.41441C2.72977 1.41441 2.55553 1.43379 2.36193 1.43379V0.81366H4.64641L7.20193 6.72425C7.33745 7.01494 7.45361 7.325 7.58913 7.61569C7.70529 7.90637 7.84081 8.21643 7.97633 8.50712C8.11185 8.7978 8.24737 9.10787 8.36353 9.41793H8.38289C8.49905 9.14663 8.61521 8.83656 8.77009 8.44898C8.92497 8.08078 9.04113 7.75134 9.13793 7.48003C9.58321 6.39481 10.0285 5.29021 10.4931 4.1856C10.9578 3.081 11.4224 1.95702 11.887 0.774902H14.0941V1.25938C13.8618 1.29813 13.6488 1.35627 13.4939 1.45317C13.339 1.55006 13.2229 1.72447 13.1648 1.95702C13.1067 2.18957 13.068 2.51901 13.0874 2.92597L13.4746 9.70862C13.4939 9.88303 13.4939 10.0574 13.4939 10.2125C13.4939 10.3675 13.4939 10.5225 13.4939 10.6388C13.6682 10.6388 13.8618 10.6194 14.036 10.6194C14.2102 10.6194 14.4038 10.6 14.5781 10.6V11.2589H11.2482V10.7551C11.5579 10.7551 11.7902 10.6776 11.9258 10.5225C12.0806 10.3869 12.1581 10.1931 12.1968 9.92178C12.2549 9.68924 12.2549 9.35979 12.2355 8.99159L11.9451 4.06933C11.9258 3.9143 11.9258 3.73989 11.9064 3.58486C11.887 3.42982 11.887 3.27479 11.8677 3.11976C11.8677 2.96473 11.8483 2.8097 11.829 2.63529C11.8096 2.7128 11.7902 2.79032 11.7515 2.86783C11.7128 2.94535 11.6741 3.02287 11.6547 3.11976L8.30545 11.3946H7.86017Z" fill="#606060"/>
<path d="M20.2699 11.2589C20.2506 11.0845 20.2119 10.9488 20.2119 10.8132C20.2119 10.6775 20.1925 10.5419 20.1731 10.4062C19.844 10.7357 19.4762 11.007 19.0696 11.2008C18.6824 11.3945 18.2565 11.4914 17.8306 11.4914C17.0755 11.4914 16.5141 11.317 16.1463 10.9682C15.7784 10.6194 15.6042 10.2124 15.6042 9.70857C15.6042 9.24347 15.7397 8.85589 16.0301 8.52645C16.3205 8.19701 16.6883 7.9257 17.1336 7.71253C17.5789 7.49936 18.0823 7.34433 18.605 7.22806C19.1277 7.13116 19.6504 7.07303 20.1538 7.09241V6.16221C20.1538 5.81339 20.1151 5.48395 20.057 5.17389C19.9989 4.86382 19.8634 4.6119 19.6698 4.41811C19.4762 4.22432 19.1471 4.10804 18.7211 4.10804C18.4307 4.10804 18.1403 4.1468 17.8306 4.26307C17.5208 4.37935 17.3079 4.59252 17.1723 4.8832C17.2498 4.96072 17.3079 5.05761 17.3272 5.15451C17.3466 5.2514 17.3659 5.3483 17.3659 5.44519C17.3659 5.56147 17.3079 5.69712 17.2111 5.85215C17.1143 6.02656 16.94 6.0847 16.6883 6.0847C16.4754 6.0847 16.3205 6.00718 16.2043 5.87153C16.1075 5.7165 16.0495 5.54209 16.0495 5.3483C16.0495 5.01885 16.185 4.70879 16.4367 4.43748C16.6883 4.16618 17.0368 3.95301 17.4821 3.79798C17.9274 3.64295 18.4307 3.56543 18.9922 3.56543C19.8247 3.56543 20.4442 3.7786 20.8314 4.22432C21.2379 4.67003 21.4122 5.36768 21.4122 6.31725C21.4122 6.68545 21.4122 7.05365 21.4122 7.42185C21.4122 7.79005 21.4122 8.15825 21.4122 8.54583C21.4122 8.91403 21.4122 9.30161 21.4122 9.66981C21.4122 9.82484 21.4122 9.97987 21.3928 10.1543C21.3735 10.3287 21.3735 10.4837 21.3541 10.6969C21.5283 10.6969 21.7026 10.6775 21.8768 10.6581C22.0511 10.6388 22.2253 10.6388 22.3995 10.6194V11.2395H20.2699V11.2589ZM20.1344 7.59626C19.8053 7.59626 19.4375 7.6544 19.0696 7.73191C18.7018 7.80943 18.3533 7.9257 18.0435 8.06135C17.7338 8.19701 17.4821 8.41018 17.2885 8.64272C17.0949 8.89465 16.9981 9.18534 17.0175 9.53416C17.0368 9.90236 17.153 10.1737 17.3853 10.3675C17.6176 10.5612 17.8693 10.6388 18.1791 10.6388C18.5856 10.6388 18.9341 10.5612 19.2439 10.4062C19.5536 10.2512 19.844 10.038 20.1538 9.76671C20.1344 9.65043 20.1344 9.53416 20.1344 9.39851C20.1344 9.26285 20.1344 9.1272 20.1344 8.99155C20.1344 8.93341 20.1344 8.77838 20.1344 8.50707C20.1344 8.25514 20.1344 7.94508 20.1344 7.59626Z" fill="#606060"/>
<path d="M26.62 11.4917C26.0198 11.4917 25.4778 11.3367 24.9744 11.046C24.4904 10.736 24.1032 10.3096 23.8128 9.74763C23.5224 9.18564 23.3869 8.50738 23.3869 7.7516C23.3869 6.93768 23.5418 6.22066 23.8709 5.58115C24.2 4.96102 24.6453 4.45717 25.2261 4.10835C25.8069 3.75952 26.4651 3.56573 27.2008 3.56573C27.5299 3.56573 27.859 3.60449 28.1688 3.70139C28.4979 3.7789 28.7496 3.8758 28.9432 3.99207V1.9379C28.9432 1.78287 28.9432 1.62784 28.9432 1.49218C28.9432 1.35653 28.9626 1.18212 28.9819 0.96895C28.8077 0.988329 28.6334 0.988329 28.4592 1.00771C28.285 1.02709 28.1107 1.02709 27.9365 1.04647V0.406959C28.3818 0.406959 28.7109 0.38758 28.9432 0.348822C29.1755 0.310064 29.3691 0.251927 29.4853 0.19379C29.6014 0.135653 29.6982 0.077516 29.7757 0H30.2016V9.67012C30.2016 9.82515 30.2016 9.98018 30.1822 10.1546C30.1822 10.3096 30.1629 10.484 30.1435 10.6972C30.3178 10.6972 30.492 10.6778 30.6662 10.6584C30.8405 10.6391 31.0147 10.6391 31.189 10.6197V11.2398H29.0594C29.0787 11.1042 29.04 10.9685 29.04 10.8329C29.0206 10.7166 29.0206 10.5809 29.0013 10.4647C28.7302 10.7747 28.3818 11.0266 27.9752 11.2011C27.5686 11.3755 27.104 11.4917 26.62 11.4917ZM27.1427 10.7553C27.4718 10.7553 27.801 10.6584 28.1301 10.4647C28.4592 10.2709 28.7302 10.0383 28.9626 9.76701C28.9626 9.65074 28.9432 9.51509 28.9432 9.37943C28.9432 9.24378 28.9432 9.08875 28.9432 8.93371L28.9626 4.65096C28.7302 4.47655 28.4592 4.34089 28.1882 4.26338C27.8978 4.18586 27.6074 4.12773 27.317 4.12773C26.8136 4.12773 26.3877 4.26338 26.0198 4.55406C25.652 4.84475 25.381 5.25171 25.1874 5.75556C24.9938 6.27879 24.9163 6.87954 24.9357 7.57719C24.955 8.17793 25.0518 8.72055 25.2261 9.20502C25.4003 9.6895 25.652 10.0577 25.9618 10.329C26.2909 10.6197 26.6781 10.7553 27.1427 10.7553Z" fill="#606060"/>
<path d="M35.9322 11.4918C35.2546 11.4918 34.635 11.3367 34.0736 11.0073C33.5122 10.6779 33.0862 10.2321 32.7765 9.63139C32.4667 9.03064 32.2925 8.333 32.2925 7.53846C32.2925 6.84082 32.4474 6.20131 32.7571 5.58118C33.0669 4.98043 33.5122 4.47658 34.0736 4.10838C34.635 3.74018 35.2933 3.54639 36.029 3.54639C36.4549 3.54639 36.8421 3.60452 37.1906 3.74018C37.5584 3.87583 37.8682 4.06962 38.1586 4.3603C38.449 4.65099 38.6619 4.98043 38.8168 5.38739C38.9717 5.79435 39.0491 6.27882 39.0491 6.84082L33.8026 6.93771C33.8026 7.69349 33.88 8.35238 34.0542 8.93375C34.2091 9.49574 34.4802 9.94145 34.848 10.2515C35.2158 10.5616 35.6805 10.7166 36.2613 10.7166C36.571 10.7166 36.8808 10.6585 37.2099 10.5616C37.539 10.4453 37.8294 10.3097 38.1198 10.1159C38.3909 9.92207 38.6232 9.70891 38.7975 9.49574L39.1459 9.78642C38.8749 10.2128 38.5651 10.5422 38.1779 10.7941C37.8101 11.0461 37.4229 11.2205 37.0163 11.3367C36.6485 11.4336 36.2806 11.4918 35.9322 11.4918ZM33.88 6.31758H37.6746C37.6746 5.96876 37.6165 5.61994 37.5197 5.2905C37.4229 4.96105 37.2486 4.68975 36.997 4.47658C36.7453 4.26341 36.4549 4.14714 36.0677 4.14714C35.4869 4.14714 35.0222 4.32155 34.635 4.65099C34.2478 4.99981 33.9962 5.5618 33.88 6.31758Z" fill="#606060"/>
<path d="M44.7991 1.9379C44.7991 1.78287 44.7991 1.62784 44.7991 1.49218C44.7991 1.35653 44.8184 1.18212 44.8378 0.96895C44.6635 0.988329 44.4893 0.988329 44.3151 1.00771C44.1408 1.02709 43.9666 1.02709 43.7923 1.04647V0.406959C44.2376 0.406959 44.5667 0.38758 44.8184 0.348822C45.0701 0.310064 45.2443 0.251927 45.3799 0.19379C45.496 0.135653 45.5928 0.077516 45.6703 0H46.0962V4.43779C46.3672 4.16648 46.6963 3.95331 47.0835 3.79828C47.4707 3.64325 47.8773 3.56573 48.3419 3.56573C48.9808 3.56573 49.5423 3.72077 50.065 4.03083C50.5683 4.34089 50.9749 4.76723 51.2847 5.3486C51.5751 5.91059 51.7299 6.58886 51.7299 7.36402C51.7299 8.21669 51.5557 8.93371 51.1879 9.55384C50.82 10.174 50.336 10.6584 49.7552 10.9879C49.1744 11.3173 48.5355 11.4917 47.8579 11.4917C47.5288 11.4917 47.1416 11.4336 46.7544 11.298C46.3479 11.1817 45.9994 10.9298 45.6703 10.5809L45.3218 11.2592H44.7991V1.9379ZM46.0768 8.91434C46.0768 9.43757 46.1543 9.84453 46.3285 10.1352C46.5027 10.4259 46.7157 10.6197 46.9867 10.7166C47.2578 10.8329 47.5288 10.8716 47.8386 10.8716C48.3226 10.8716 48.7291 10.736 49.0776 10.4647C49.4261 10.1933 49.6971 9.82515 49.8907 9.36005C50.0843 8.89496 50.1811 8.33297 50.1811 7.71284C50.1811 7.03457 50.1037 6.43383 49.9295 5.92997C49.7552 5.42612 49.5035 5.01916 49.1744 4.72847C48.8453 4.43779 48.4 4.28276 47.8967 4.28276C47.5675 4.28276 47.2384 4.36027 46.9287 4.5153C46.5995 4.67034 46.3285 4.88351 46.0962 5.13543V8.91434H46.0768Z" fill="#606060"/>
<path d="M54.0144 15.2901C53.7046 15.2901 53.453 15.2126 53.2206 15.0575C53.0077 14.9025 52.8915 14.67 52.8915 14.3793C52.8915 14.2049 52.9496 14.0304 53.0658 13.8948C53.1819 13.7591 53.3368 13.6622 53.5304 13.6622C53.7627 13.6429 53.937 13.7204 54.0144 13.8948C54.0918 14.0498 54.1499 14.1855 54.1499 14.3018C54.1499 14.3405 54.1499 14.3599 54.1499 14.3986C54.1499 14.4374 54.1499 14.4762 54.1306 14.5149C54.1499 14.5343 54.208 14.5343 54.2854 14.5343C54.4016 14.5343 54.5371 14.4762 54.6726 14.3793C54.8082 14.2824 54.9437 14.1273 55.0405 13.9529C55.176 13.7398 55.3115 13.4103 55.4858 12.9646C55.66 12.5189 55.8536 12.015 56.0666 11.3949L53.7434 6.4145C53.4917 5.85251 53.2981 5.42618 53.1819 5.09673C53.0658 4.76729 52.9883 4.53474 52.9496 4.36033L52.272 4.41847V3.79834H55.3502V4.24406H55.2922C54.8856 4.28281 54.6533 4.43785 54.6146 4.70915C54.5758 4.98046 54.692 5.42617 54.963 6.00754L56.7054 9.74769C56.9378 9.10818 57.1507 8.48806 57.3637 7.86793C57.5766 7.2478 57.7702 6.62767 57.9832 6.00754C58.0606 5.79438 58.1381 5.56183 58.2349 5.32928C58.3123 5.09673 58.4091 4.88356 58.4866 4.70915C58.564 4.53474 58.6414 4.39909 58.7189 4.36033L57.6928 4.41847V3.79834H60.016V4.24406C59.6482 4.37971 59.3771 4.61226 59.1835 4.9417C59.0093 5.27114 58.8157 5.6781 58.6221 6.18196L56.7635 11.3755C56.4731 12.2088 56.2021 12.9258 55.9504 13.5072C55.6987 14.0886 55.4277 14.5343 55.1373 14.825C54.8275 15.135 54.4597 15.2901 54.0144 15.2901Z" fill="#606060"/>
</g>
<defs>
<clipPath id="clip0_13_93">
<rect width="242" height="88" fill="white"/>
</clipPath>
</defs>
</svg>
